<svg width="1em" height="1em" xmlns="http://www.w3.org/2000/svg" viewBox="0 0 27 31">
	<path
		d="M0,29.1c0-5.3,4.3-9.6,9.6-9.6h7.1c5.3,0,9.6,4.3,9.6,9.6c0,0.9-0.7,1.7-1.7,1.7H1.7C0.7,30.8,0,30,0,29.1z
		 M24.3,28.9c-0.1-4.2-3.5-7.5-7.7-7.5H9.6c-4.2,0-7.6,3.3-7.7,7.5H24.3z M5.6,8.2c0-4.1,3.4-7.5,7.5-7.5s7.5,3.4,7.5,7.5v0.9
		c0,4.1-3.4,7.5-7.5,7.5s-7.5-3.4-7.5-7.5V8.2z M18.7,7.3h-1.8c-0.9,0-1.7-0.3-2.4-1L14.2,6c-1.1,1.4-2.9,2.3-4.7,2.3h-2v0.9
		c0,3.1,2.5,5.6,5.6,5.6c3.1,0,5.6-2.5,5.6-5.6V8.2C18.8,7.9,18.7,7.6,18.7,7.3z M18,5.4c-1-1.7-2.8-2.8-4.9-2.8
		c-2.4,0-4.5,1.6-5.3,3.8h1.7c1.6,0,3-0.9,3.7-2.3c0-0.1,0.1-0.2,0.2-0.3c0.4-0.4,1-0.4,1.3,0L15.9,5c0.3,0.3,0.6,0.4,1,0.4H18z"
		fill="currentCOlor" />
</svg>