<svg width="1em" height="1em" version="1.1" id="Layer_1" xmlns="http://www.w3.org/2000/svg" viewBox="0 0 30 31">
	<path d="M30,11.1v15c0,1.6-1.3,2.8-2.8,2.8H2.8c-1.6,0-2.8-1.3-2.8-2.8v-15c0-1.6,1.3-2.8,2.8-2.8h6.6V4
		c0-0.8,0.6-1.4,1.4-1.4h8.4c0.8,0,1.4,0.6,1.4,1.4v4.2h6.6C28.7,8.2,30,9.5,30,11.1z M28.1,11.1c0-0.5-0.4-0.9-0.9-0.9H2.8
		c-0.5,0-0.9,0.4-0.9,0.9v4.7h26.2V11.1z M28.1,17.6h-9.4V20c0,0.8-0.6,1.4-1.4,1.4h-4.7c-0.8,0-1.4-0.6-1.4-1.4v-2.3H1.9v8.4
		c0,0.5,0.4,0.9,0.9,0.9h24.4c0.5,0,0.9-0.4,0.9-0.9V17.6z M11.2,8.2h7.5V4.5h-7.5V8.2z M16.9,19.5v-1.9h-3.8v1.9H16.9z"
		fill="currentColor" />
</svg>