<svg width="1em" height="1em" viewBox="0 0 20 20" fill="none" xmlns="http://www.w3.org/2000/svg">
    <g clip-path="url(#clip0_1653_9217)">
        <path
            d="M14.6786 12.9296C15.889 11.278 16.4311 9.23025 16.1965 7.19607C15.9619 5.1619 14.9679 3.29131 13.4133 1.95855C11.8588 0.625789 9.85831 -0.0708582 7.81217 0.00798323C5.76603 0.0868247 3.8251 0.93534 2.37771 2.38377C0.930312 3.8322 0.0831854 5.77373 0.00580817 7.81993C-0.0715691 9.86613 0.626509 11.8661 1.96038 13.4197C3.29426 14.9733 5.16555 15.966 7.1999 16.1991C9.23424 16.4323 11.2816 15.8887 12.9324 14.6771H12.9311C12.9686 14.7271 13.0086 14.7746 13.0536 14.8209L17.8661 19.6334C18.1005 19.8679 18.4185 19.9998 18.7501 19.9999C19.0816 20 19.3997 19.8684 19.6342 19.634C19.8688 19.3996 20.0006 19.0817 20.0008 18.7501C20.0009 18.4185 19.8693 18.1004 19.6349 17.8659L14.8224 13.0534C14.7777 13.0081 14.7296 12.9676 14.6786 12.9296ZM15.0011 8.12464C15.0011 9.02748 14.8233 9.92147 14.4778 10.7556C14.1323 11.5897 13.6259 12.3476 12.9875 12.986C12.3491 13.6244 11.5912 14.1308 10.7571 14.4763C9.92296 14.8218 9.02896 14.9996 8.12612 14.9996C7.22328 14.9996 6.32929 14.8218 5.49517 14.4763C4.66106 14.1308 3.90317 13.6244 3.26476 12.986C2.62636 12.3476 2.11995 11.5897 1.77445 10.7556C1.42895 9.92147 1.25112 9.02748 1.25112 8.12464C1.25112 6.30127 1.97545 4.55259 3.26476 3.26328C4.55408 1.97397 6.30276 1.24964 8.12612 1.24964C9.94949 1.24964 11.6982 1.97397 12.9875 3.26328C14.2768 4.55259 15.0011 6.30127 15.0011 8.12464Z"
            fill="currentColor" />
    </g>
    <defs>
        <clipPath id="clip0_1653_9217">
            <rect width="20" height="20" fill="white" />
        </clipPath>
    </defs>
</svg>